<svg width="24" height="25" viewBox="0 0 24 25" fill="none" xmlns="http://www.w3.org/2000/svg">
<path fill-rule="evenodd" clip-rule="evenodd" d="M0.764185 0.833496C0.706282 1.04968 0.666664 1.28287 0.666664 1.54925V23.46C0.666664 23.7223 0.706282 23.9531 0.761899 24.1668L12.3333 12.5164L0.764185 0.833496Z" fill="#1C1C1D"/>
<path fill-rule="evenodd" clip-rule="evenodd" d="M17.3333 8.26903L3.09826 0.362865C2.53072 0.0182122 1.97201 -0.0691532 1.5 0.0510745L13.7435 11.6667L17.3333 8.26903Z" fill="#1C1C1D"/>
<path fill-rule="evenodd" clip-rule="evenodd" d="M22.1304 11.0568L18.5257 9.1665L14.8333 12.4632L18.5942 15.8332L22.1014 14.0175C23.8136 13.0979 23.189 11.6175 22.1304 11.0568Z" fill="#1C1C1D"/>
<path fill-rule="evenodd" clip-rule="evenodd" d="M1.5 24.939C1.97687 25.073 2.5464 24.9928 3.12551 24.639L17.3333 16.8041L13.6965 13.3335L1.5 24.939Z" fill="#1C1C1D"/>
</svg>


