<svg width="420" height="281" viewBox="0 0 420 281" fill="none" xmlns="http://www.w3.org/2000/svg">
<mask id="path-1-inside-1" fill="white">
<path fill-rule="evenodd" clip-rule="evenodd" d="M379.946 45.3092C403.645 56.7289 420 80.9777 420 109.046C420 135.251 405.745 158.127 384.566 170.342C382.81 207.832 351.859 237.688 313.935 237.688C310.109 237.688 306.353 237.384 302.692 236.799C289.761 250.956 271.151 259.838 250.467 259.838C236.656 259.838 223.771 255.879 212.883 249.034C200.183 267.885 178.639 280.284 154.199 280.284C125.136 280.284 100.169 262.751 89.2974 237.686C39.9263 237.373 0 197.254 0 147.809C0 98.1708 40.2399 57.9309 89.8783 57.9309C90.7541 57.9309 91.627 57.9434 92.4967 57.9683C100.84 28.2108 128.166 6.38932 160.588 6.38932C184.01 6.38932 204.772 17.7769 217.639 35.3174C223.617 33.6758 229.911 32.799 236.41 32.799C242.134 32.799 247.7 33.4794 253.031 34.7635C265.339 13.9549 288.007 0 313.935 0C344.034 0 369.741 18.8062 379.946 45.3092Z"/>
</mask>
<path fill-rule="evenodd" clip-rule="evenodd" d="M379.946 45.3092C403.645 56.7289 420 80.9777 420 109.046C420 135.251 405.745 158.127 384.566 170.342C382.81 207.832 351.859 237.688 313.935 237.688C310.109 237.688 306.353 237.384 302.692 236.799C289.761 250.956 271.151 259.838 250.467 259.838C236.656 259.838 223.771 255.879 212.883 249.034C200.183 267.885 178.639 280.284 154.199 280.284C125.136 280.284 100.169 262.751 89.2974 237.686C39.9263 237.373 0 197.254 0 147.809C0 98.1708 40.2399 57.9309 89.8783 57.9309C90.7541 57.9309 91.627 57.9434 92.4967 57.9683C100.84 28.2108 128.166 6.38932 160.588 6.38932C184.01 6.38932 204.772 17.7769 217.639 35.3174C223.617 33.6758 229.911 32.799 236.41 32.799C242.134 32.799 247.7 33.4794 253.031 34.7635C265.339 13.9549 288.007 0 313.935 0C344.034 0 369.741 18.8062 379.946 45.3092Z" fill="#7711DD"/>
<path d="M379.946 45.3092L377.146 46.3872L377.573 47.496L378.643 48.0118L379.946 45.3092ZM384.566 170.342L383.068 167.743L381.646 168.563L381.57 170.202L384.566 170.342ZM302.692 236.799L303.165 233.836L301.567 233.581L300.476 234.776L302.692 236.799ZM212.883 249.034L214.48 246.494L212.019 244.947L210.395 247.358L212.883 249.034ZM89.2974 237.686L92.0497 236.492L91.2716 234.698L89.3164 234.686L89.2974 237.686ZM92.4967 57.9683L92.4109 60.9671L94.7528 61.0341L95.3853 58.7782L92.4967 57.9683ZM217.639 35.3174L215.221 37.0919L216.442 38.7573L218.434 38.2103L217.639 35.3174ZM253.031 34.7635L252.328 37.6801L254.484 38.1995L255.613 36.2908L253.031 34.7635ZM423 109.046C423 79.7824 405.946 54.5073 381.248 42.6066L378.643 48.0118C401.345 58.9504 417 82.1731 417 109.046H423ZM386.065 172.941C408.135 160.212 423 136.367 423 109.046H417C417 134.136 403.355 156.042 383.068 167.743L386.065 172.941ZM313.935 240.688C353.469 240.688 385.733 209.565 387.563 170.482L381.57 170.202C379.888 206.099 350.25 234.688 313.935 234.688V240.688ZM302.218 239.761C306.036 240.371 309.95 240.688 313.935 240.688V234.688C310.268 234.688 306.671 234.396 303.165 233.836L302.218 239.761ZM250.467 262.838C272.029 262.838 291.432 253.576 304.907 238.822L300.476 234.776C288.091 248.337 270.273 256.838 250.467 256.838V262.838ZM211.287 251.574C222.639 258.711 236.075 262.838 250.467 262.838V256.838C237.238 256.838 224.903 253.047 214.48 246.494L211.287 251.574ZM154.199 283.284C179.679 283.284 202.137 270.354 215.371 250.71L210.395 247.358C198.229 265.417 177.599 277.284 154.199 277.284V283.284ZM86.5451 238.879C97.8754 265.002 123.899 283.284 154.199 283.284V277.284C126.374 277.284 102.463 260.5 92.0497 236.492L86.5451 238.879ZM-3 147.809C-3 198.904 38.259 240.363 89.2784 240.686L89.3164 234.686C41.5937 234.384 3 195.603 3 147.809H-3ZM89.8783 54.9309C38.583 54.9309 -3 96.5139 -3 147.809H3C3 99.8276 41.8967 60.9309 89.8783 60.9309V54.9309ZM92.5825 54.9695C91.6842 54.9438 90.7827 54.9309 89.8783 54.9309V60.9309C90.7255 60.9309 91.5697 60.943 92.4109 60.9671L92.5825 54.9695ZM160.588 3.38932C126.786 3.38932 98.3052 26.1399 89.6081 57.1584L95.3853 58.7782C103.375 30.2818 129.546 9.38932 160.588 9.38932V3.38932ZM220.058 33.5429C206.65 15.2651 185.006 3.38932 160.588 3.38932V9.38932C183.014 9.38932 202.894 20.2886 215.221 37.0919L220.058 33.5429ZM236.41 29.799C229.64 29.799 223.079 30.7125 216.845 32.4245L218.434 38.2103C224.155 36.6391 230.182 35.799 236.41 35.799V29.799ZM253.733 31.847C248.175 30.5078 242.373 29.799 236.41 29.799V35.799C241.896 35.799 247.226 36.4509 252.328 37.6801L253.733 31.847ZM255.613 36.2908C267.403 16.3572 289.111 3 313.935 3V-3C286.904 -3 263.274 11.5526 250.449 33.2362L255.613 36.2908ZM313.935 3C342.752 3 367.372 21.0036 377.146 46.3872L382.745 44.2312C372.109 16.6087 345.316 -3 313.935 -3V3Z" fill="black" mask="url(#path-1-inside-1)"/>
</svg>
