<svg width="150" height="101" viewBox="0 0 150 101" fill="none" xmlns="http://www.w3.org/2000/svg">
<mask id="path-1-inside-1" fill="white">
<path fill-rule="evenodd" clip-rule="evenodd" d="M59.6318 87.6861C55.2361 95.1177 47.1402 100.102 37.8803 100.102C27.1307 100.102 17.9498 93.3851 14.3051 83.9197C5.84091 79.8413 2.52832e-06 71.1809 3.40469e-06 61.1564C4.22288e-06 51.7975 5.09107 43.6276 12.6549 39.2651C13.282 25.8759 24.3359 15.213 37.8803 15.213C39.2469 15.213 40.5882 15.3216 41.8959 15.5305C46.5139 10.4743 53.1603 7.30231 60.5477 7.30231C65.4799 7.30231 70.0818 8.71626 73.9703 11.1609C78.5062 4.42838 86.2004 7.07164e-05 94.929 7.14795e-05C105.308 7.23869e-05 114.225 6.26189 118.108 15.2139C135.741 15.3255 150 29.6539 150 47.3126C150 65.0407 135.629 79.412 117.901 79.412C117.588 79.412 117.276 79.4076 116.965 79.3987C113.986 90.0263 104.226 97.8197 92.6471 97.8197C84.2822 97.8197 76.8672 93.7527 72.2716 87.4883C70.1368 88.0746 67.889 88.3877 65.5679 88.3877C63.5234 88.3877 61.5356 88.1447 59.6318 87.6861Z"/>
</mask>
<path fill-rule="evenodd" clip-rule="evenodd" d="M59.6318 87.6861C55.2361 95.1177 47.1402 100.102 37.8803 100.102C27.1307 100.102 17.9498 93.3851 14.3051 83.9197C5.84091 79.8413 2.52832e-06 71.1809 3.40469e-06 61.1564C4.22288e-06 51.7975 5.09107 43.6276 12.6549 39.2651C13.282 25.8759 24.3359 15.213 37.8803 15.213C39.2469 15.213 40.5882 15.3216 41.8959 15.5305C46.5139 10.4743 53.1603 7.30231 60.5477 7.30231C65.4799 7.30231 70.0818 8.71626 73.9703 11.1609C78.5062 4.42838 86.2004 7.07164e-05 94.929 7.14795e-05C105.308 7.23869e-05 114.225 6.26189 118.108 15.2139C135.741 15.3255 150 29.6539 150 47.3126C150 65.0407 135.629 79.412 117.901 79.412C117.588 79.412 117.276 79.4076 116.965 79.3987C113.986 90.0263 104.226 97.8197 92.6471 97.8197C84.2822 97.8197 76.8672 93.7527 72.2716 87.4883C70.1368 88.0746 67.889 88.3877 65.5679 88.3877C63.5234 88.3877 61.5356 88.1447 59.6318 87.6861Z" fill="#1BDBC4"/>
<path d="M59.6318 87.6861L60.3344 84.7695L58.1786 84.2501L57.0497 86.1588L59.6318 87.6861ZM14.3051 83.9197L17.1048 82.8417L16.6778 81.7329L15.6074 81.2171L14.3051 83.9197ZM12.6549 39.2651L14.1537 41.8639L15.5748 41.0442L15.6516 39.4055L12.6549 39.2651ZM41.8959 15.5305L41.4226 18.4929L43.0201 18.7482L44.1111 17.5536L41.8959 15.5305ZM73.9703 11.1609L72.3735 13.7007L74.8342 15.2477L76.4583 12.8372L73.9703 11.1609ZM118.108 15.2139L115.356 16.4077L116.134 18.2015L118.089 18.2138L118.108 15.2139ZM116.965 79.3987L117.051 76.3999L114.709 76.3329L114.077 78.5888L116.965 79.3987ZM72.2716 87.4883L74.6905 85.7138L73.4688 84.0484L71.4771 84.5954L72.2716 87.4883ZM57.0497 86.1588C53.1715 92.7154 46.0365 97.1016 37.8803 97.1016L37.8803 103.102C48.2439 103.102 57.3006 97.52 62.2139 89.2134L57.0497 86.1588ZM37.8803 97.1016C28.4124 97.1016 20.3183 91.1876 17.1048 82.8417L11.5055 84.9977C15.5812 95.5825 25.8489 103.102 37.8803 103.102L37.8803 97.1016ZM-3 61.1564C-3 72.3763 3.54022 82.0628 13.0029 86.6223L15.6074 81.2171C8.1416 77.6197 3 69.9856 3 61.1564L-3 61.1564ZM11.156 36.6664C2.70151 41.5426 -3 50.6819 -3 61.1564L3 61.1564C3 52.913 7.48063 45.7126 14.1537 41.8639L11.156 36.6664ZM37.8803 12.213C22.7261 12.213 10.3599 24.1425 9.65813 39.1248L15.6516 39.4055C16.2041 27.6092 25.9458 18.213 37.8803 18.213L37.8803 12.213ZM42.3693 12.5681C40.9056 12.3342 39.406 12.213 37.8803 12.213L37.8803 18.213C39.0878 18.213 40.2708 18.3089 41.4226 18.4929L42.3693 12.5681ZM60.5477 4.30231C52.2827 4.30231 44.8432 7.855 39.6808 13.5074L44.1111 17.5536C48.1846 13.0935 54.038 10.3023 60.5477 10.3023L60.5477 4.30231ZM75.567 8.62116C71.2143 5.88462 66.0612 4.30232 60.5477 4.30231L60.5477 10.3023C64.8985 10.3023 68.9493 11.5479 72.3735 13.7007L75.567 8.62116ZM94.929 -2.99993C85.1607 -2.99993 76.5519 1.95987 71.4823 9.48469L76.4583 12.8372C80.4604 6.8969 87.2402 3.00007 94.929 3.00007L94.929 -2.99993ZM120.86 14.0202C116.519 4.0109 106.546 -2.99993 94.929 -2.99993L94.929 3.00007C104.071 3.00007 111.932 8.51288 115.356 16.4077L120.86 14.0202ZM153 47.3126C153 28.0034 137.408 12.336 118.127 12.214L118.089 18.2138C134.073 18.315 147 31.3043 147 47.3126L153 47.3126ZM117.901 82.412C137.285 82.412 153 66.6975 153 47.3126L147 47.3126C147 63.3838 133.972 76.412 117.901 76.412L117.901 82.412ZM116.88 82.3974C117.219 82.4071 117.559 82.412 117.901 82.412L117.901 76.412C117.616 76.412 117.333 76.408 117.051 76.3999L116.88 82.3974ZM92.6471 100.82C105.606 100.82 116.521 92.0973 119.854 80.2086L114.077 78.5888C111.451 87.9554 102.847 94.8197 92.6471 94.8197L92.6471 100.82ZM69.8527 89.2628C74.9891 96.2645 83.2863 100.82 92.6471 100.82L92.6471 94.8197C85.278 94.8197 78.7453 91.241 74.6905 85.7138L69.8527 89.2628ZM65.5679 91.3877C68.1599 91.3877 70.6749 91.0379 73.0661 90.3812L71.4771 84.5954C69.5987 85.1113 67.618 85.3877 65.5679 85.3877L65.5679 91.3877ZM58.9292 90.6026C61.0613 91.1163 63.2849 91.3877 65.5679 91.3877L65.5679 85.3877C63.7618 85.3877 62.0098 85.1731 60.3344 84.7695L58.9292 90.6026Z" fill="black" mask="url(#path-1-inside-1)"/>
</svg>
