<svg width="206" height="176" viewBox="0 0 206 176" fill="none" xmlns="http://www.w3.org/2000/svg">
<mask id="path-1-inside-1" fill="white">
<path fill-rule="evenodd" clip-rule="evenodd" d="M139.455 18.536C131.21 7.29672 117.907 0 102.899 0C82.1238 0 64.6145 13.9825 59.2684 33.05C58.7111 33.0341 58.1518 33.0261 57.5906 33.0261C25.7842 33.0261 0 58.8103 0 90.6167C0 122.299 25.5834 148.006 57.2186 148.206C64.1849 164.267 80.1829 175.501 98.8048 175.501C114.465 175.501 128.27 167.556 136.408 155.477C143.384 159.863 151.641 162.4 160.49 162.4C185.513 162.4 205.798 142.115 205.798 117.092C205.798 103.967 200.217 92.1451 191.299 83.8706C194.801 77.4405 196.791 70.068 196.791 62.2307C196.791 37.2076 176.506 16.9224 151.482 16.9224C147.318 16.9224 143.285 17.4842 139.455 18.536Z"/>
</mask>
<path fill-rule="evenodd" clip-rule="evenodd" d="M139.455 18.536C131.21 7.29672 117.907 0 102.899 0C82.1238 0 64.6145 13.9825 59.2684 33.05C58.7111 33.0341 58.1518 33.0261 57.5906 33.0261C25.7842 33.0261 0 58.8103 0 90.6167C0 122.299 25.5834 148.006 57.2186 148.206C64.1849 164.267 80.1829 175.501 98.8048 175.501C114.465 175.501 128.27 167.556 136.408 155.477C143.384 159.863 151.641 162.4 160.49 162.4C185.513 162.4 205.798 142.115 205.798 117.092C205.798 103.967 200.217 92.1451 191.299 83.8706C194.801 77.4405 196.791 70.068 196.791 62.2307C196.791 37.2076 176.506 16.9224 151.482 16.9224C147.318 16.9224 143.285 17.4842 139.455 18.536Z" fill="white"/>
<path d="M139.455 18.536L137.036 20.3105L138.258 21.9759L140.25 21.4289L139.455 18.536ZM59.2684 33.05L59.1826 36.0488L61.5245 36.1158L62.157 33.86L59.2684 33.05ZM57.2186 148.206L59.9709 147.012L59.1928 145.219L57.2376 145.206L57.2186 148.206ZM136.408 155.477L138.004 152.937L135.544 151.39L133.92 153.801L136.408 155.477ZM191.299 83.8706L188.664 82.4357L187.549 84.4837L189.258 86.0698L191.299 83.8706ZM141.874 16.7615C133.088 4.78499 118.902 -3 102.899 -3V3C116.911 3 129.332 9.80844 137.036 20.3105L141.874 16.7615ZM102.899 -3C80.7439 -3 62.0795 11.9116 56.3798 32.2401L62.157 33.86C67.1495 16.0534 83.5037 3 102.899 3V-3ZM59.3542 30.0513C58.7683 30.0345 58.1804 30.0261 57.5906 30.0261V36.0261C58.1232 36.0261 58.6539 36.0337 59.1826 36.0488L59.3542 30.0513ZM57.5906 30.0261C24.1274 30.0261 -3 57.1534 -3 90.6167H3C3 60.4671 27.4411 36.0261 57.5906 36.0261V30.0261ZM-3 90.6167C-3 123.95 23.916 150.996 57.1996 151.206L57.2376 145.206C27.2507 145.017 3 120.649 3 90.6167H-3ZM54.4664 149.4C61.8913 166.518 78.9452 178.501 98.8048 178.501V172.501C81.4206 172.501 66.4786 162.016 59.9709 147.012L54.4664 149.4ZM98.8048 178.501C115.505 178.501 130.224 170.025 138.896 157.153L133.92 153.801C126.315 165.088 113.425 172.501 98.8048 172.501V178.501ZM134.811 158.017C142.251 162.695 151.059 165.4 160.49 165.4V159.4C152.222 159.4 144.516 157.032 138.004 152.937L134.811 158.017ZM160.49 165.4C187.169 165.4 208.798 143.772 208.798 117.092H202.798C202.798 140.458 183.856 159.4 160.49 159.4V165.4ZM208.798 117.092C208.798 103.098 202.844 90.4898 193.339 81.6714L189.258 86.0698C197.59 93.8005 202.798 104.836 202.798 117.092H208.798ZM193.791 62.2307C193.791 69.5542 191.932 76.4348 188.664 82.4357L193.933 85.3055C197.669 78.4462 199.791 70.5817 199.791 62.2307H193.791ZM151.482 19.9224C174.849 19.9224 193.791 38.8644 193.791 62.2307H199.791C199.791 35.5507 178.162 13.9224 151.482 13.9224V19.9224ZM140.25 21.4289C143.823 20.4475 147.589 19.9224 151.482 19.9224V13.9224C147.047 13.9224 142.747 14.5208 138.661 15.6432L140.25 21.4289Z" fill="#1C1C1D" mask="url(#path-1-inside-1)"/>
</svg>
