<svg width="309" height="135" viewBox="0 0 309 135" fill="none" xmlns="http://www.w3.org/2000/svg">
<mask id="path-1-inside-1" fill="white">
<path fill-rule="evenodd" clip-rule="evenodd" d="M185.97 25.5503C195.016 10.2565 211.677 0 230.733 0C252.855 0 271.749 13.822 279.249 33.301C296.667 41.6941 308.688 59.5163 308.688 80.146C308.688 99.4059 298.211 116.219 282.645 125.196C281.354 152.75 258.606 174.693 230.733 174.693C227.921 174.693 225.16 174.47 222.469 174.04C212.966 184.445 199.288 190.973 184.085 190.973C173.935 190.973 164.465 188.063 156.463 183.032C147.128 196.887 131.294 206 113.332 206C91.9717 206 73.6216 193.114 65.6311 174.692C29.3448 174.462 0 144.976 0 108.635C0 72.1527 29.5751 42.5776 66.0579 42.5776C66.7016 42.5776 67.3431 42.5868 67.9824 42.6051C74.1146 20.7342 94.1981 4.69604 118.028 4.69604C135.242 4.69604 150.501 13.0655 159.959 25.9573C164.352 24.7508 168.978 24.1064 173.754 24.1064C177.962 24.1064 182.052 24.6064 185.97 25.5503Z"/>
</mask>
<path fill-rule="evenodd" clip-rule="evenodd" d="M185.97 25.5503C195.016 10.2565 211.677 0 230.733 0C252.855 0 271.749 13.822 279.249 33.301C296.667 41.6941 308.688 59.5163 308.688 80.146C308.688 99.4059 298.211 116.219 282.645 125.196C281.354 152.75 258.606 174.693 230.733 174.693C227.921 174.693 225.16 174.47 222.469 174.04C212.966 184.445 199.288 190.973 184.085 190.973C173.935 190.973 164.465 188.063 156.463 183.032C147.128 196.887 131.294 206 113.332 206C91.9717 206 73.6216 193.114 65.6311 174.692C29.3448 174.462 0 144.976 0 108.635C0 72.1527 29.5751 42.5776 66.0579 42.5776C66.7016 42.5776 67.3431 42.5868 67.9824 42.6051C74.1146 20.7342 94.1981 4.69604 118.028 4.69604C135.242 4.69604 150.501 13.0655 159.959 25.9573C164.352 24.7508 168.978 24.1064 173.754 24.1064C177.962 24.1064 182.052 24.6064 185.97 25.5503Z" fill="white"/>
<path d="M185.97 25.5503L185.268 28.4668L187.423 28.9862L188.552 27.0775L185.97 25.5503ZM279.249 33.301L276.449 34.379L276.876 35.4879L277.947 36.0036L279.249 33.301ZM282.645 125.196L281.146 122.598L279.725 123.417L279.648 125.056L282.645 125.196ZM222.469 174.04L222.943 171.078L221.345 170.822L220.254 172.017L222.469 174.04ZM156.463 183.032L158.06 180.493L155.599 178.945L153.975 181.356L156.463 183.032ZM65.6311 174.692L68.3834 173.498L67.6053 171.704L65.6501 171.692L65.6311 174.692ZM67.9824 42.6051L67.8966 45.6039L70.2385 45.6708L70.871 43.415L67.9824 42.6051ZM159.959 25.9573L157.54 27.7318L158.761 29.3972L160.753 28.8502L159.959 25.9573ZM188.552 27.0775C197.081 12.6587 212.781 3 230.733 3V-3C210.573 -3 192.952 7.85416 183.388 24.023L188.552 27.0775ZM230.733 3C251.573 3 269.38 16.0194 276.449 34.379L282.048 32.223C274.117 11.6246 254.137 -3 230.733 -3V3ZM311.688 80.146C311.688 58.321 298.968 39.4726 280.551 30.5984L277.947 36.0036C294.367 43.9157 305.688 60.7117 305.688 80.146H311.688ZM284.144 127.795C300.6 118.304 311.688 100.522 311.688 80.146H305.688C305.688 98.2903 295.821 114.134 281.146 122.598L284.144 127.795ZM230.733 177.693C260.216 177.693 284.276 154.484 285.642 125.337L279.648 125.056C278.432 151.017 256.996 171.693 230.733 171.693V177.693ZM221.996 177.002C224.843 177.457 227.762 177.693 230.733 177.693V171.693C228.08 171.693 225.478 171.483 222.943 171.078L221.996 177.002ZM184.085 193.973C200.166 193.973 214.637 187.065 224.684 176.063L220.254 172.017C211.295 181.826 198.41 187.973 184.085 187.973V193.973ZM154.866 185.572C163.333 190.895 173.354 193.973 184.085 193.973V187.973C174.517 187.973 165.597 185.232 158.06 180.493L154.866 185.572ZM113.332 209C132.334 209 149.083 199.356 158.951 184.709L153.975 181.356C145.174 194.419 130.254 203 113.332 203V209ZM62.8789 175.886C71.3279 195.365 90.7341 209 113.332 209V203C93.2094 203 75.9153 190.863 68.3834 173.498L62.8789 175.886ZM-3 108.635C-3 146.626 27.6774 177.452 65.6121 177.692L65.6501 171.692C31.0121 171.473 3 143.325 3 108.635H-3ZM66.0579 39.5776C27.9183 39.5776 -3 70.4958 -3 108.635H3C3 73.8096 31.232 45.5776 66.0579 45.5776V39.5776ZM68.0681 39.6063C67.4003 39.5872 66.7302 39.5776 66.0579 39.5776V45.5776C66.673 45.5776 67.2859 45.5864 67.8966 45.6039L68.0681 39.6063ZM118.028 1.69604C92.8182 1.69604 71.5795 18.6633 65.0938 41.7952L70.871 43.415C76.6496 22.8051 95.578 7.69604 118.028 7.69604V1.69604ZM162.378 24.1828C152.379 10.5538 136.238 1.69604 118.028 1.69604V7.69604C134.246 7.69604 148.623 15.5773 157.54 27.7318L162.378 24.1828ZM173.754 21.1064C168.707 21.1064 163.814 21.7875 159.164 23.0644L160.753 28.8502C164.89 27.7141 169.249 27.1064 173.754 27.1064V21.1064ZM186.673 22.6337C182.527 21.6348 178.2 21.1064 173.754 21.1064V27.1064C177.723 27.1064 181.578 27.578 185.268 28.4668L186.673 22.6337Z" fill="black" mask="url(#path-1-inside-1)"/>
</svg>
