<svg width="343" height="292" viewBox="0 0 343 292" fill="none" xmlns="http://www.w3.org/2000/svg">
<mask id="path-1-inside-1" fill="white">
<path fill-rule="evenodd" clip-rule="evenodd" d="M231.887 30.822C218.177 12.1331 196.056 0 171.101 0C136.556 0 107.442 23.2501 98.552 54.9557C97.6253 54.9291 96.6953 54.9158 95.7621 54.9158C42.8742 54.9158 0 97.79 0 150.678C0 203.36 42.5402 246.105 95.1434 246.438C106.727 273.144 133.329 291.825 164.293 291.825C190.333 291.825 213.288 278.614 226.82 258.529C238.42 265.822 252.149 270.04 266.863 270.04C308.472 270.04 342.202 236.31 342.202 194.701C342.202 172.877 332.922 153.22 318.093 139.461C323.916 128.769 327.225 116.51 327.225 103.478C327.225 61.8692 293.495 28.1388 251.886 28.1388C244.962 28.1388 238.256 29.0729 231.887 30.822Z"/>
</mask>
<path fill-rule="evenodd" clip-rule="evenodd" d="M231.887 30.822C218.177 12.1331 196.056 0 171.101 0C136.556 0 107.442 23.2501 98.552 54.9557C97.6253 54.9291 96.6953 54.9158 95.7621 54.9158C42.8742 54.9158 0 97.79 0 150.678C0 203.36 42.5402 246.105 95.1434 246.438C106.727 273.144 133.329 291.825 164.293 291.825C190.333 291.825 213.288 278.614 226.82 258.529C238.42 265.822 252.149 270.04 266.863 270.04C308.472 270.04 342.202 236.31 342.202 194.701C342.202 172.877 332.922 153.22 318.093 139.461C323.916 128.769 327.225 116.51 327.225 103.478C327.225 61.8692 293.495 28.1388 251.886 28.1388C244.962 28.1388 238.256 29.0729 231.887 30.822Z" fill="white"/>
<path d="M231.887 30.822L229.468 32.5965L230.69 34.2619L232.682 33.7149L231.887 30.822ZM98.552 54.9557L98.4662 57.9544L100.808 58.0214L101.441 55.7656L98.552 54.9557ZM95.1434 246.438L97.8956 245.244L97.1176 243.451L95.1624 243.438L95.1434 246.438ZM226.82 258.529L228.416 255.989L225.956 254.442L224.332 256.853L226.82 258.529ZM318.093 139.461L315.458 138.026L314.343 140.074L316.053 141.66L318.093 139.461ZM234.306 29.0475C220.055 9.62137 197.052 -3 171.101 -3V3C195.06 3 216.299 14.6448 229.468 32.5965L234.306 29.0475ZM171.101 -3C135.176 -3 104.907 21.1791 95.6634 54.1457L101.441 55.7656C109.977 25.321 137.936 3 171.101 3V-3ZM98.6378 51.9569C97.6825 51.9296 96.7239 51.9158 95.7621 51.9158V57.9158C96.6667 57.9158 97.5681 57.9287 98.4662 57.9544L98.6378 51.9569ZM95.7621 51.9158C41.2173 51.9158 -3 96.1331 -3 150.678H3C3 99.4468 44.531 57.9158 95.7621 57.9158V51.9158ZM-3 150.678C-3 205.01 40.8728 249.095 95.1244 249.438L95.1624 243.438C44.2075 243.116 3 201.709 3 150.678H-3ZM92.3911 247.632C104.433 275.395 132.091 294.825 164.293 294.825V288.825C134.566 288.825 109.021 270.893 97.8956 245.244L92.3911 247.632ZM164.293 294.825C191.373 294.825 215.242 281.083 229.308 260.205L224.332 256.853C211.333 276.146 189.294 288.825 164.293 288.825V294.825ZM225.223 261.069C237.288 268.654 251.568 273.04 266.863 273.04V267.04C252.73 267.04 239.553 262.99 228.416 255.989L225.223 261.069ZM266.863 273.04C310.129 273.04 345.202 237.967 345.202 194.701H339.202C339.202 234.653 306.815 267.04 266.863 267.04V273.04ZM345.202 194.701C345.202 172.008 335.549 151.564 320.133 137.262L316.053 141.66C330.296 154.875 339.202 173.746 339.202 194.701H345.202ZM324.225 103.478C324.225 115.996 321.048 127.763 315.458 138.026L320.728 140.896C326.785 129.774 330.225 117.023 330.225 103.478H324.225ZM251.886 31.1388C291.838 31.1388 324.225 63.5261 324.225 103.478H330.225C330.225 60.2124 295.152 25.1388 251.886 25.1388V31.1388ZM232.682 33.7149C238.794 32.0362 245.233 31.1388 251.886 31.1388V25.1388C244.691 25.1388 237.718 26.1096 231.093 27.9291L232.682 33.7149Z" fill="#1C1C1D" mask="url(#path-1-inside-1)"/>
</svg>
