<svg width="574" height="627" viewBox="0 0 574 627" fill="none" xmlns="http://www.w3.org/2000/svg">
<g filter="url(#filter0_d)">
<path fill-rule="evenodd" clip-rule="evenodd" d="M463.176 392.576C470.194 376.492 483.16 379.813 483.16 379.813C487.283 379.883 488.257 382.853 487.256 386.59L458.262 494.796C457.262 498.53 453.659 500.669 451.584 497.656C451.584 497.656 442.956 493.189 443.487 481.51" fill="#7711DD"/>
<path d="M463.176 392.576C470.194 376.492 483.16 379.813 483.16 379.813C487.283 379.883 488.257 382.853 487.256 386.59L458.262 494.796C457.262 498.53 453.659 500.669 451.584 497.656C451.584 497.656 442.956 493.189 443.487 481.51" stroke="#1C1C1D"/>
<path fill-rule="evenodd" clip-rule="evenodd" d="M503.851 244.641C511.638 237.804 518.763 240.657 520.768 241.695C521.132 241.884 521.32 241.898 521.32 241.898C525.517 243.26 527.995 247.817 526.851 252.087L510.391 313.517C509.248 317.782 504.838 320.449 500.521 319.475C499.88 319.498 490.779 318.467 486.789 308.316" fill="#7711DD"/>
<path d="M503.851 244.641C511.638 237.804 518.763 240.657 520.768 241.695C521.132 241.884 521.32 241.898 521.32 241.898C525.517 243.26 527.995 247.817 526.851 252.087L510.391 313.517C509.248 317.782 504.838 320.449 500.521 319.475C499.88 319.498 490.779 318.467 486.789 308.316" stroke="#1C1C1D"/>
<path d="M121.11 105.017C131.891 60.2211 177.817 33.4283 222.118 46.0888L373.116 89.2411L460.373 110.503C505.592 121.521 532.246 168.291 518.679 212.812L475.073 355.906L436.848 519.188C426.42 563.729 381.202 590.805 337.016 578.965L94.591 514.007C50.8547 502.288 25.2186 456.992 37.6868 413.463L95.1912 212.706L121.11 105.017Z" fill="#7711DD" stroke="#1C1C1D" stroke-width="2"/>
<path d="M376.781 114.231L376.815 114.239L456.522 131.989C489.592 139.353 509.336 173.372 499.326 205.739L452.375 357.549L452.363 357.585L452.355 357.622L416.767 514.206C409.475 546.291 376.981 565.891 345.198 557.375L98.6313 491.308C67.165 482.876 48.8122 450.19 57.9947 418.935L123.354 196.465L123.364 196.431L123.371 196.397L142.415 109.544C149.631 76.6316 183.278 56.7741 215.579 66.3651L376.748 114.221L376.781 114.231Z" fill="#962EFF" stroke="#1C1C1D" stroke-width="2"/>
<path d="M148.54 199.807L148.548 199.779L148.554 199.75L167.257 116.814C172.378 94.1026 196.109 80.8334 218.241 88.1101C264.998 103.484 341.198 127.466 398.424 140.215C411.843 143.204 428.202 146.464 443.298 149.351C466.711 153.829 481.104 177.801 473.864 200.5C456.024 256.427 425.768 354.354 408.74 426.701C403.141 450.486 396.698 481.17 391.697 505.69C387.176 527.855 364.935 541.731 343.094 535.879L110.946 473.675C89.8626 468.026 77.5199 446.174 83.5657 425.202L148.54 199.807Z" fill="#962EFF" stroke="#1C1C1D" stroke-width="2"/>
<path d="M201.454 104.843L196.925 121.747L193.013 120.699L196.701 106.934L193.32 106.028L194.161 102.889L201.454 104.843ZM213.948 122.892L213.094 126.08L200.32 122.657L200.999 120.121L209.169 115.71C210.038 115.236 210.656 114.797 211.023 114.395C211.394 113.977 211.642 113.535 211.767 113.068C211.948 112.391 211.853 111.814 211.481 111.335C211.129 110.843 210.511 110.479 209.625 110.242C208.885 110.044 208.178 110.009 207.504 110.14C206.835 110.254 206.224 110.539 205.671 110.994L203.313 108.395C204.236 107.59 205.351 107.069 206.656 106.833C207.967 106.58 209.37 106.654 210.867 107.055C212.123 107.391 213.162 107.894 213.983 108.563C214.825 109.22 215.402 109.996 215.715 110.89C216.048 111.773 216.078 112.722 215.806 113.736C215.561 114.654 215.137 115.463 214.535 116.165C213.933 116.866 212.938 117.583 211.551 118.316L206.68 120.944L213.948 122.892ZM219.805 118.793C219.145 118.616 218.65 118.242 218.32 117.671C217.99 117.099 217.915 116.475 218.097 115.799C218.282 115.107 218.656 114.612 219.219 114.314C219.786 114 220.4 113.932 221.06 114.108C221.72 114.285 222.217 114.651 222.552 115.207C222.89 115.746 222.967 116.362 222.781 117.054C222.6 117.73 222.224 118.233 221.652 118.563C221.081 118.893 220.465 118.97 219.805 118.793ZM217.482 127.462C216.822 127.285 216.327 126.911 215.997 126.34C215.667 125.768 215.593 125.144 215.774 124.468C215.959 123.776 216.333 123.281 216.896 122.983C217.464 122.669 218.077 122.601 218.737 122.778C219.397 122.954 219.895 123.321 220.229 123.876C220.567 124.415 220.644 125.031 220.458 125.723C220.277 126.4 219.901 126.903 219.329 127.233C218.758 127.563 218.142 127.639 217.482 127.462ZM229.403 130.76C228.002 130.385 226.847 129.704 225.938 128.719C225.029 127.733 224.435 126.504 224.156 125.032C223.898 123.548 224.013 121.896 224.501 120.077C224.988 118.258 225.712 116.778 226.673 115.638C227.655 114.486 228.786 113.711 230.066 113.312C231.346 112.913 232.687 112.901 234.087 113.277C235.488 113.652 236.643 114.332 237.552 115.318C238.461 116.304 239.045 117.538 239.303 119.022C239.581 120.495 239.477 122.14 238.989 123.96C238.502 125.779 237.767 127.264 236.786 128.416C235.825 129.556 234.704 130.326 233.424 130.725C232.144 131.123 230.803 131.135 229.403 130.76ZM230.289 127.452C231.319 127.728 232.243 127.501 233.06 126.771C233.893 126.045 234.557 124.756 235.053 122.905C235.549 121.053 235.618 119.605 235.26 118.56C234.917 117.519 234.231 116.861 233.201 116.585C232.187 116.313 231.263 116.54 230.43 117.266C229.613 117.996 228.957 119.287 228.461 121.138C227.965 122.99 227.888 124.436 228.23 125.476C228.589 126.522 229.275 127.18 230.289 127.452ZM247.852 124.083C250.235 124.721 251.862 125.666 252.735 126.918C253.623 128.174 253.854 129.599 253.427 131.193C253.151 132.223 252.641 133.096 251.897 133.811C251.158 134.51 250.188 134.975 248.987 135.205C247.807 135.424 246.444 135.326 244.899 134.912C243.707 134.593 242.573 134.125 241.496 133.509C240.439 132.88 239.586 132.169 238.937 131.373L241.284 128.793C241.799 129.449 242.438 130.025 243.202 130.523C243.97 131.005 244.797 131.365 245.682 131.602C246.664 131.865 247.489 131.879 248.156 131.644C248.823 131.408 249.249 130.945 249.434 130.252C249.629 129.528 249.477 128.901 248.981 128.371C248.501 127.845 247.536 127.388 246.087 127L241.765 125.842L245.183 116.56L255.495 119.323L254.653 122.463L247.602 120.573L246.476 123.714L247.852 124.083Z" fill="white"/>
<path d="M430.604 180.557L427.851 179.819L426.9 183.369L423.085 182.346L424.036 178.797L414.932 176.357L415.637 173.725L426.479 165.139L430.584 166.238L420.471 174.425L425.011 175.641L425.858 172.478L429.553 173.468L428.705 176.631L431.458 177.369L430.604 180.557ZM445.893 188.665C444.508 188.294 443.336 187.678 442.376 186.817C441.437 185.944 440.789 184.916 440.433 183.734C440.093 182.556 440.096 181.323 440.441 180.035C440.786 178.747 441.4 177.678 442.284 176.827C443.183 175.981 444.256 175.423 445.502 175.153C446.768 174.871 448.093 174.916 449.478 175.287C450.846 175.653 451.96 176.262 452.819 177.114C453.698 177.953 454.229 178.967 454.411 180.154L451.068 180.941C450.711 179.569 449.897 178.712 448.625 178.371C447.643 178.108 446.744 178.212 445.927 178.684C445.111 179.155 444.554 179.946 444.256 181.057C443.959 182.168 444.045 183.131 444.517 183.948C444.988 184.764 445.715 185.304 446.697 185.567C447.985 185.912 449.118 185.578 450.098 184.563L452.593 186.94C451.85 187.845 450.885 188.45 449.7 188.753C448.53 189.061 447.261 189.031 445.893 188.665Z" fill="white"/>
<g filter="url(#filter1_d)">
<rect x="206.806" y="425.66" width="41" height="95.9286" rx="5" transform="rotate(105 206.806 425.66)" fill="white"/>
<rect x="205.582" y="426.367" width="39" height="93.9286" rx="4" transform="rotate(105 205.582 426.367)" stroke="black" stroke-width="2"/>
</g>
<g filter="url(#filter2_d)">
<rect x="376.878" y="471.231" width="41" height="95.9286" rx="5" transform="rotate(105 376.878 471.231)" fill="white"/>
<rect x="375.654" y="471.938" width="39" height="93.9286" rx="4" transform="rotate(105 375.654 471.938)" stroke="black" stroke-width="2"/>
</g>
<g filter="url(#filter3_d)">
<rect x="276.008" y="444.203" width="41" height="63.1429" rx="5" transform="rotate(105 276.008 444.203)" fill="white"/>
<rect x="274.783" y="444.91" width="39" height="61.1429" rx="4" transform="rotate(105 274.783 444.91)" stroke="black" stroke-width="2"/>
</g>
<mask id="path-16-inside-1" fill="white">
<path d="M376.149 359.398C380.212 362.469 381.041 368.279 377.675 372.103C364.48 387.095 347.825 398.714 329.1 405.914C307.498 414.221 284.002 416.317 261.271 411.963C238.54 407.61 217.481 396.982 200.476 381.282C183.472 365.582 171.201 345.436 165.051 323.124C158.902 300.811 159.12 277.223 165.68 255.028C172.24 232.834 184.881 212.918 202.172 197.534C219.464 182.15 240.716 171.913 263.523 167.98C283.294 164.571 303.55 166.017 322.562 172.132C327.411 173.692 329.676 179.106 327.76 183.825C325.845 188.545 320.474 190.776 315.606 189.28C299.803 184.422 283.034 183.333 266.657 186.157C247.242 189.504 229.152 198.219 214.433 211.314C199.713 224.41 188.953 241.363 183.368 260.257C177.784 279.15 177.598 299.229 182.833 318.223C188.068 337.216 198.514 354.365 212.989 367.73C227.464 381.095 245.39 390.142 264.74 393.848C284.09 397.553 304.091 395.77 322.48 388.699C337.991 382.734 351.833 373.208 362.917 360.94C366.331 357.161 372.086 356.326 376.149 359.398Z"/>
</mask>
<path d="M376.149 359.398C380.212 362.469 381.041 368.279 377.675 372.103C364.48 387.095 347.825 398.714 329.1 405.914C307.498 414.221 284.002 416.317 261.271 411.963C238.54 407.61 217.481 396.982 200.476 381.282C183.472 365.582 171.201 345.436 165.051 323.124C158.902 300.811 159.12 277.223 165.68 255.028C172.24 232.834 184.881 212.918 202.172 197.534C219.464 182.15 240.716 171.913 263.523 167.98C283.294 164.571 303.55 166.017 322.562 172.132C327.411 173.692 329.676 179.106 327.76 183.825C325.845 188.545 320.474 190.776 315.606 189.28C299.803 184.422 283.034 183.333 266.657 186.157C247.242 189.504 229.152 198.219 214.433 211.314C199.713 224.41 188.953 241.363 183.368 260.257C177.784 279.15 177.598 299.229 182.833 318.223C188.068 337.216 198.514 354.365 212.989 367.73C227.464 381.095 245.39 390.142 264.74 393.848C284.09 397.553 304.091 395.77 322.48 388.699C337.991 382.734 351.833 373.208 362.917 360.94C366.331 357.161 372.086 356.326 376.149 359.398Z" fill="#1BDBC4" stroke="#1C1C1D" stroke-width="4" mask="url(#path-16-inside-1)"/>
<mask id="path-17-inside-2" fill="white">
<path d="M352.952 341.859C357.063 344.967 357.908 350.856 354.412 354.642C344.552 365.321 332.344 373.627 318.701 378.873C302.146 385.239 284.14 386.845 266.72 383.509C249.3 380.172 233.161 372.028 220.13 359.996C207.099 347.964 197.694 332.525 192.982 315.426C188.269 298.327 188.436 280.25 193.464 263.241C198.491 246.231 208.178 230.969 221.43 219.179C234.681 207.39 250.968 199.545 268.446 196.531C282.85 194.047 297.59 194.926 311.528 199.045C316.47 200.506 318.762 205.996 316.823 210.771C314.885 215.547 309.451 217.786 304.475 216.445C293.799 213.566 282.587 213.031 271.618 214.922C257.572 217.344 244.484 223.649 233.835 233.123C223.186 242.597 215.401 254.862 211.361 268.531C207.321 282.199 207.187 296.726 210.974 310.467C214.761 324.208 222.318 336.615 232.79 346.284C243.262 355.953 256.232 362.498 270.231 365.179C284.229 367.86 298.699 366.569 312.003 361.454C322.392 357.458 331.747 351.255 339.441 343.313C343.027 339.612 348.841 338.751 352.952 341.859Z"/>
</mask>
<path d="M352.952 341.859C357.063 344.967 357.908 350.856 354.412 354.642C344.552 365.321 332.344 373.627 318.701 378.873C302.146 385.239 284.14 386.845 266.72 383.509C249.3 380.172 233.161 372.028 220.13 359.996C207.099 347.964 197.694 332.525 192.982 315.426C188.269 298.327 188.436 280.25 193.464 263.241C198.491 246.231 208.178 230.969 221.43 219.179C234.681 207.39 250.968 199.545 268.446 196.531C282.85 194.047 297.59 194.926 311.528 199.045C316.47 200.506 318.762 205.996 316.823 210.771C314.885 215.547 309.451 217.786 304.475 216.445C293.799 213.566 282.587 213.031 271.618 214.922C257.572 217.344 244.484 223.649 233.835 233.123C223.186 242.597 215.401 254.862 211.361 268.531C207.321 282.199 207.187 296.726 210.974 310.467C214.761 324.208 222.318 336.615 232.79 346.284C243.262 355.953 256.232 362.498 270.231 365.179C284.229 367.86 298.699 366.569 312.003 361.454C322.392 357.458 331.747 351.255 339.441 343.313C343.027 339.612 348.841 338.751 352.952 341.859Z" fill="#F95A2C" stroke="#1C1C1D" stroke-width="4" mask="url(#path-17-inside-2)"/>
<mask id="path-18-inside-3" fill="white">
<path d="M328.065 323.043C332.647 326.507 333.603 333.104 329.452 337.074C323.265 342.992 315.942 347.652 307.887 350.75C296.581 355.097 284.284 356.194 272.388 353.915C260.491 351.637 249.469 346.075 240.57 337.858C231.67 329.641 225.248 319.097 222.03 307.42C218.811 295.742 218.925 283.397 222.359 271.781C225.792 260.165 232.408 249.742 241.457 241.691C250.507 233.639 261.63 228.282 273.566 226.223C282.071 224.757 290.747 225.007 299.093 226.92C304.691 228.203 307.25 234.358 305.09 239.68C302.93 245.002 296.851 247.429 291.172 246.573C286.526 245.872 281.775 245.915 277.101 246.721C268.99 248.119 261.432 251.76 255.283 257.231C249.134 262.702 244.638 269.784 242.305 277.677C239.972 285.57 239.895 293.959 242.082 301.893C244.269 309.828 248.633 316.992 254.68 322.576C260.727 328.159 268.216 331.939 276.3 333.487C284.383 335.035 292.739 334.29 300.421 331.336C304.849 329.633 308.95 327.236 312.581 324.254C317.02 320.609 323.483 319.579 328.065 323.043Z"/>
</mask>
<path d="M328.065 323.043C332.647 326.507 333.603 333.104 329.452 337.074C323.265 342.992 315.942 347.652 307.887 350.75C296.581 355.097 284.284 356.194 272.388 353.915C260.491 351.637 249.469 346.075 240.57 337.858C231.67 329.641 225.248 319.097 222.03 307.42C218.811 295.742 218.925 283.397 222.359 271.781C225.792 260.165 232.408 249.742 241.457 241.691C250.507 233.639 261.63 228.282 273.566 226.223C282.071 224.757 290.747 225.007 299.093 226.92C304.691 228.203 307.25 234.358 305.09 239.68C302.93 245.002 296.851 247.429 291.172 246.573C286.526 245.872 281.775 245.915 277.101 246.721C268.99 248.119 261.432 251.76 255.283 257.231C249.134 262.702 244.638 269.784 242.305 277.677C239.972 285.57 239.895 293.959 242.082 301.893C244.269 309.828 248.633 316.992 254.68 322.576C260.727 328.159 268.216 331.939 276.3 333.487C284.383 335.035 292.739 334.29 300.421 331.336C304.849 329.633 308.95 327.236 312.581 324.254C317.02 320.609 323.483 319.579 328.065 323.043Z" fill="#FFBD12" stroke="#1C1C1D" stroke-width="4" mask="url(#path-18-inside-3)"/>
</g>
<defs>
<filter id="filter0_d" x="6.10352e-05" y="0" width="593.255" height="646.995" filterUnits="userSpaceOnUse" color-interpolation-filters="sRGB">
<feFlood flood-opacity="0" result="BackgroundImageFix"/>
<feColorMatrix in="SourceAlpha" type="matrix" values="0 0 0 0 0 0 0 0 0 0 0 0 0 0 0 0 0 0 127 0"/>
<feOffset dx="20" dy="20"/>
<feColorMatrix type="matrix" values="0 0 0 0 0 0 0 0 0 0 0 0 0 0 0 0 0 0 0.13 0"/>
<feBlend mode="normal" in2="BackgroundImageFix" result="effect1_dropShadow"/>
<feBlend mode="normal" in="SourceGraphic" in2="effect1_dropShadow" result="shape"/>
</filter>
<filter id="filter1_d" x="104.657" y="401.954" width="101.027" height="64.1861" filterUnits="userSpaceOnUse" color-interpolation-filters="sRGB">
<feFlood flood-opacity="0" result="BackgroundImageFix"/>
<feColorMatrix in="SourceAlpha" type="matrix" values="0 0 0 0 0 0 0 0 0 0 0 0 0 0 0 0 0 0 127 0"/>
<feOffset dy="2"/>
<feColorMatrix type="matrix" values="0 0 0 0 0.12549 0 0 0 0 0.12549 0 0 0 0 0.12549 0 0 0 1 0"/>
<feBlend mode="normal" in2="BackgroundImageFix" result="effect1_dropShadow"/>
<feBlend mode="normal" in="SourceGraphic" in2="effect1_dropShadow" result="shape"/>
</filter>
<filter id="filter2_d" x="274.729" y="447.525" width="101.027" height="64.1861" filterUnits="userSpaceOnUse" color-interpolation-filters="sRGB">
<feFlood flood-opacity="0" result="BackgroundImageFix"/>
<feColorMatrix in="SourceAlpha" type="matrix" values="0 0 0 0 0 0 0 0 0 0 0 0 0 0 0 0 0 0 127 0"/>
<feOffset dy="2"/>
<feColorMatrix type="matrix" values="0 0 0 0 0.12549 0 0 0 0 0.12549 0 0 0 0 0.12549 0 0 0 1 0"/>
<feBlend mode="normal" in2="BackgroundImageFix" result="effect1_dropShadow"/>
<feBlend mode="normal" in="SourceGraphic" in2="effect1_dropShadow" result="shape"/>
</filter>
<filter id="filter3_d" x="205.528" y="428.983" width="69.3579" height="55.7006" filterUnits="userSpaceOnUse" color-interpolation-filters="sRGB">
<feFlood flood-opacity="0" result="BackgroundImageFix"/>
<feColorMatrix in="SourceAlpha" type="matrix" values="0 0 0 0 0 0 0 0 0 0 0 0 0 0 0 0 0 0 127 0"/>
<feOffset dy="2"/>
<feColorMatrix type="matrix" values="0 0 0 0 0.12549 0 0 0 0 0.12549 0 0 0 0 0.12549 0 0 0 1 0"/>
<feBlend mode="normal" in2="BackgroundImageFix" result="effect1_dropShadow"/>
<feBlend mode="normal" in="SourceGraphic" in2="effect1_dropShadow" result="shape"/>
</filter>
</defs>
</svg>
